<svg width="198" height="189" viewBox="0 0 198 189" fill="none" xmlns="http://www.w3.org/2000/svg">
<path d="M134.741 138.29C129.819 139.373 123.546 138.643 116.343 136.06C104.951 131.983 92.538 123.778 81.3719 112.954C70.2059 102.13 61.6209 89.9602 57.2001 78.7072C52.7254 67.3022 53.0368 58.1517 58.0938 52.9334C63.1509 47.7151 72.286 47.1186 83.8222 51.2466C95.2143 55.3244 107.627 63.5294 118.793 74.3532C129.959 85.1771 138.542 97.3371 142.965 108.6C147.439 120.005 147.128 129.155 142.071 134.374C140.176 136.326 137.7 137.639 134.741 138.29ZM65.6762 50.1187C62.9318 50.7224 60.646 51.9215 58.9111 53.7161C54.1889 58.5945 53.9457 67.3103 58.2531 78.281C62.6222 89.3919 71.1022 101.411 82.1525 112.127C93.2027 122.843 105.472 130.957 116.71 134.986C127.802 138.956 136.508 138.454 141.242 133.583C145.974 128.703 146.207 119.989 141.9 109.018C137.531 97.9077 129.051 85.8888 118 75.1726C106.95 64.4564 94.6806 56.3429 83.4425 52.3131C76.441 49.8088 70.3836 49.0832 65.686 50.1166L65.6762 50.1187Z" fill="#EEEEEE"/>
<path d="M87.5339 148.787C84.6137 149.429 81.8493 149.29 79.3241 148.33C72.531 145.749 68.3617 137.594 67.5864 125.365C66.8161 113.299 69.4388 98.6434 74.9529 84.0992C80.4692 69.5647 88.2409 56.8584 96.8225 48.346C105.512 39.7177 114.045 36.3866 120.838 38.9675C127.632 41.5484 131.801 49.7031 132.576 61.932C133.346 73.9983 130.724 88.654 125.21 103.198C119.693 117.733 111.922 130.439 103.34 138.951C97.8769 144.372 92.4779 147.709 87.5361 148.797L87.5339 148.787ZM112.864 39.6261C108.147 40.6638 102.94 43.8979 97.6267 49.1623C89.1548 57.5686 81.4822 70.12 76.0161 84.5104C70.55 98.9007 67.9613 113.385 68.7189 125.301C69.4714 137.053 73.3789 144.856 79.7255 147.269C82.0393 148.152 84.5956 148.276 87.3009 147.681C92.0181 146.643 97.2249 143.409 102.538 138.145C111.01 129.739 118.682 117.187 124.149 102.797C129.615 88.4065 132.203 73.9221 131.446 62.0066C130.693 50.2539 126.786 42.4512 120.439 40.0383C118.125 39.1547 115.569 39.031 112.864 39.6261Z" fill="#EEEEEE"/>
<path d="M105.613 119.96C90.5433 123.275 75.7878 123.735 64.0322 121.263C52.0402 118.741 44.5675 113.442 42.9882 106.356C41.409 99.2699 45.9328 91.3019 55.717 83.9278C65.3796 76.652 79.0588 70.7863 94.2371 67.4065C94.3445 67.3829 94.4422 67.3614 94.5496 67.3377C109.619 64.0228 124.375 63.5621 136.131 66.0343C148.122 68.5569 155.595 73.8551 157.174 80.9413C158.756 88.0373 154.23 95.9955 144.446 103.37C134.783 110.645 121.104 116.511 105.926 119.891C105.818 119.915 105.72 119.936 105.613 119.96ZM94.3693 67.961L94.4918 68.5177C79.4697 71.8631 65.9479 77.6533 56.4071 84.8306C46.9999 91.9171 42.6288 99.4623 44.0994 106.101C45.5777 112.729 52.7366 117.717 64.258 120.149C75.8542 122.594 90.4449 122.129 105.358 118.848C105.466 118.825 105.563 118.803 105.661 118.782C120.683 115.436 134.215 109.644 143.746 102.469C153.153 95.3825 157.524 87.8372 156.053 81.1982C154.575 74.571 147.416 69.5825 135.895 67.1509C124.214 64.693 109.516 65.1821 94.482 68.5199L94.3596 67.9632L94.3693 67.961Z" fill="#EEEEEE"/>
<path d="M48.8275 106.556C49.3109 108.754 47.9244 110.922 45.7269 111.406C43.5294 111.889 41.349 110.495 40.8678 108.307C40.3866 106.119 41.7709 103.941 43.9684 103.458C46.1658 102.974 48.3343 104.361 48.8177 106.558L48.8275 106.556Z" fill="#59C2AC"/>
<path d="M45.7506 111.513C43.4946 112.009 41.2546 110.577 40.7583 108.321C40.262 106.065 41.6943 103.825 43.9503 103.329C46.2064 102.832 48.4464 104.265 48.9426 106.521C49.4389 108.777 48.0067 111.017 45.7506 111.513ZM44.0019 103.563C41.8728 104.031 40.5168 106.152 40.9851 108.281C41.4534 110.41 43.5743 111.766 45.7034 111.298C47.8325 110.83 49.1885 108.709 48.7202 106.58C48.2518 104.451 46.131 103.095 44.0019 103.563Z" fill="#007571"/>
<g style="mix-blend-mode:multiply">
<path d="M43.9762 103.446C41.7787 103.929 40.3922 106.098 40.8756 108.295C41.359 110.493 43.5275 111.879 45.725 111.396C47.9224 110.912 49.3089 108.744 48.8255 106.546C48.3422 104.349 46.1736 102.962 43.9762 103.446ZM44.9669 109.812C43.414 110.153 41.877 109.171 41.5354 107.618C41.1939 106.065 42.1766 104.528 43.7295 104.186C45.2823 103.845 46.8194 104.827 47.1609 106.38C47.5025 107.933 46.5198 109.47 44.9669 109.812Z" fill="#59C2AC"/>
</g>
<g style="mix-blend-mode:screen">
<path d="M44.0129 105.475C44.1053 105.895 43.8387 106.312 43.4187 106.405C42.9987 106.497 42.5817 106.23 42.4893 105.81C42.397 105.391 42.6636 104.973 43.0836 104.881C43.5035 104.789 43.9205 105.055 44.0129 105.475Z" fill="#59C2AC"/>
</g>
<g style="mix-blend-mode:screen">
<path d="M43.0473 107.09C43.0988 107.325 42.9541 107.551 42.7197 107.603C42.4853 107.654 42.2589 107.51 42.2074 107.275C42.1558 107.041 42.3006 106.814 42.5349 106.763C42.7693 106.711 42.9957 106.856 43.0473 107.09Z" fill="#59C2AC"/>
</g>
<path d="M123.023 38.6099C123.506 40.8074 122.12 42.9759 119.922 43.4593C117.725 43.9427 115.556 42.5562 115.073 40.3587C114.589 38.1612 115.974 35.983 118.171 35.4996C120.369 35.0162 122.537 36.4027 123.021 38.6002L123.023 38.6099Z" fill="#59C2AC"/>
<path d="M119.946 43.5667C117.69 44.063 115.45 42.6308 114.953 40.3747C114.457 38.1186 115.889 35.8786 118.145 35.3824C120.401 34.8861 122.641 36.3183 123.138 38.5744C123.634 40.8304 122.202 43.0704 119.946 43.5667ZM118.197 35.6168C116.068 36.0851 114.712 38.206 115.18 40.335C115.649 42.4641 117.769 43.8202 119.898 43.3518C122.028 42.8835 123.384 40.7626 122.915 38.6336C122.447 36.5045 120.326 35.1484 118.197 35.6168Z" fill="#007571"/>
<g style="mix-blend-mode:multiply">
<path d="M118.171 35.4996C115.974 35.983 114.587 38.1515 115.071 40.3489C115.554 42.5464 117.723 43.9329 119.92 43.4495C122.117 42.9661 123.504 40.7976 123.021 38.6002C122.537 36.4027 120.369 35.0162 118.171 35.4996ZM119.172 41.8632C117.619 42.2048 116.082 41.2221 115.74 39.6692C115.399 38.1163 116.381 36.5793 117.934 36.2377C119.487 35.8961 121.024 36.8789 121.366 38.4317C121.707 39.9846 120.725 41.5216 119.172 41.8632Z" fill="#59C2AC"/>
</g>
<g style="mix-blend-mode:screen">
<path d="M118.218 37.5269C118.31 37.9468 118.044 38.3638 117.624 38.4562C117.204 38.5486 116.787 38.282 116.694 37.862C116.602 37.442 116.868 37.025 117.288 36.9326C117.708 36.8403 118.125 37.1069 118.218 37.5269Z" fill="#59C2AC"/>
</g>
<g style="mix-blend-mode:screen">
<path d="M117.242 39.1442C117.294 39.3786 117.149 39.605 116.915 39.6565C116.68 39.7081 116.454 39.5634 116.402 39.329C116.351 39.0946 116.496 38.8682 116.73 38.8166C116.964 38.7651 117.191 38.9098 117.242 39.1442Z" fill="#59C2AC"/>
</g>
<path d="M145.486 134.769C145.969 136.967 144.583 139.135 142.385 139.619C140.188 140.102 138.019 138.716 137.536 136.518C137.052 134.321 138.439 132.152 140.636 131.669C142.834 131.185 145.002 132.572 145.486 134.769Z" fill="#59C2AC"/>
<path d="M142.409 139.726C140.153 140.222 137.913 138.79 137.417 136.534C136.92 134.278 138.352 132.038 140.609 131.542C142.865 131.046 145.105 132.478 145.601 134.734C146.097 136.99 144.665 139.23 142.409 139.726ZM140.66 131.776C138.531 132.245 137.175 134.365 137.643 136.494C138.112 138.624 140.232 139.98 142.362 139.511C144.491 139.043 145.847 136.922 145.378 134.793C144.91 132.664 142.789 131.308 140.66 131.776Z" fill="#007571"/>
<g style="mix-blend-mode:multiply">
<path d="M140.636 131.669C138.439 132.152 137.052 134.321 137.536 136.518C138.019 138.716 140.188 140.102 142.385 139.619C144.583 139.135 145.969 136.967 145.486 134.769C145.002 132.572 142.834 131.185 140.636 131.669ZM141.635 138.023C140.082 138.364 138.545 137.381 138.203 135.829C137.862 134.276 138.844 132.739 140.397 132.397C141.95 132.056 143.487 133.038 143.829 134.591C144.17 136.144 143.188 137.681 141.635 138.023Z" fill="#59C2AC"/>
</g>
<g style="mix-blend-mode:screen">
<path d="M140.683 133.696C140.775 134.116 140.509 134.533 140.089 134.625C139.669 134.718 139.252 134.451 139.16 134.031C139.067 133.611 139.334 133.194 139.754 133.102C140.174 133.009 140.591 133.276 140.683 133.696Z" fill="#59C2AC"/>
</g>
<g style="mix-blend-mode:screen">
<path d="M139.706 135.304C139.757 135.538 139.613 135.764 139.378 135.816C139.144 135.867 138.917 135.723 138.866 135.488C138.814 135.254 138.959 135.028 139.193 134.976C139.428 134.924 139.654 135.069 139.706 135.304Z" fill="#59C2AC"/>
</g>
<path d="M107.269 90.6699C110.446 89.971 112.455 86.829 111.756 83.652C111.058 80.475 107.916 78.4661 104.739 79.1649C101.562 79.8638 99.5526 83.0058 100.251 86.1828C100.95 89.3598 104.092 91.3687 107.269 90.6699Z" fill="#F90000"/>
<path d="M107.295 90.7871C104.062 91.4982 100.845 89.4413 100.134 86.2086C99.4231 82.9759 101.48 79.7588 104.713 79.0477C107.945 78.3366 111.162 80.3935 111.874 83.6262C112.585 86.8589 110.528 90.076 107.295 90.7871ZM104.762 79.2724C101.647 79.9577 99.6735 83.0436 100.359 86.1592C101.044 89.2747 104.13 91.2478 107.246 90.5624C110.361 89.8771 112.334 86.7912 111.649 83.6756C110.964 80.5601 107.878 78.587 104.762 79.2724Z" fill="#640202"/>
<g style="mix-blend-mode:multiply" opacity="0.64">
<path d="M104.739 79.1649C101.555 79.8653 99.5533 83.0087 100.251 86.1828C100.95 89.3569 104.095 91.3681 107.269 90.6699C110.443 89.9717 112.455 86.8261 111.756 83.652C111.058 80.4779 107.913 78.4667 104.739 79.1649ZM105.356 87.3229C103.51 87.7289 101.677 86.5655 101.269 84.7099C100.861 82.8542 102.026 81.0312 103.882 80.6231C105.737 80.2149 107.56 81.3804 107.969 83.2361C108.377 85.0917 107.211 86.9147 105.356 87.3229Z" fill="#9A180D"/>
</g>
<g style="mix-blend-mode:screen">
<path d="M104.1 83.4317C104.694 83.3011 105.069 82.7144 104.938 82.121C104.808 81.5277 104.221 81.1525 103.628 81.283C103.034 81.4135 102.659 82.0003 102.79 82.5937C102.92 83.187 103.507 83.5622 104.1 83.4317Z" fill="#A0DBE8"/>
</g>
<g style="mix-blend-mode:screen">
<path d="M103.575 84.397C103.646 84.7193 103.441 85.041 103.118 85.1119C102.796 85.1828 102.474 84.9771 102.403 84.6548C102.332 84.3325 102.538 84.0108 102.86 83.9399C103.183 83.869 103.504 84.0747 103.575 84.397Z" fill="#A0DBE8"/>
</g>
<path d="M92.3987 94.1458C95.5757 93.4469 97.5847 90.3049 96.8858 87.1279C96.1869 83.9509 93.0449 81.942 89.8679 82.6408C86.6909 83.3397 84.682 86.4817 85.3809 89.6587C86.0797 92.8357 89.2217 94.8446 92.3987 94.1458Z" fill="#F90000"/>
<path d="M92.4244 94.263C89.1917 94.9741 85.9747 92.9172 85.2636 89.6845C84.5525 86.4517 86.6094 83.2347 89.8421 82.5236C93.0748 81.8125 96.2918 83.8694 97.0029 87.1021C97.714 90.3348 95.6571 93.5519 92.4244 94.263ZM89.8915 82.7483C86.776 83.4336 84.8029 86.5195 85.4882 89.635C86.1735 92.7506 89.2595 94.7237 92.375 94.0383C95.4905 93.353 97.4636 90.2671 96.7783 87.1515C96.093 84.036 93.007 82.0629 89.8915 82.7483Z" fill="#640202"/>
<g style="mix-blend-mode:multiply" opacity="0.64">
<path d="M89.8679 82.6408C86.6938 83.3391 84.6826 86.4846 85.3809 89.6587C86.0791 92.8328 89.2246 94.844 92.3987 94.1458C95.5728 93.4476 97.584 90.302 96.8858 87.1279C96.1876 83.9538 93.0421 81.9426 89.8679 82.6408ZM90.485 90.7988C88.6391 91.2048 86.8064 90.0414 86.3982 88.1857C85.99 86.3301 87.1556 84.5071 89.0112 84.0989C90.8668 83.6908 92.6898 84.8563 93.098 86.712C93.5062 88.5676 92.3406 90.3906 90.485 90.7988Z" fill="#9A180D"/>
</g>
<g style="mix-blend-mode:screen">
<path d="M90.0676 85.5969C90.1986 86.1927 89.8253 86.7765 89.2296 86.9075C88.6338 87.0386 88.05 86.6653 87.9189 86.0696C87.7879 85.4738 88.1612 84.89 88.7569 84.7589C89.3527 84.6279 89.9365 85.0012 90.0676 85.5969Z" fill="#A0DBE8"/>
</g>
<g style="mix-blend-mode:screen">
<path d="M88.7047 87.8729C88.7756 88.1952 88.5699 88.5169 88.2476 88.5878C87.9253 88.6586 87.6036 88.453 87.5327 88.1307C87.4618 87.8084 87.6675 87.4867 87.9898 87.4158C88.3121 87.3449 88.6338 87.5506 88.7047 87.8729Z" fill="#A0DBE8"/>
</g>
<path d="M96.3951 107.612C99.5721 106.913 101.581 103.771 100.882 100.594C100.183 97.4168 97.0413 95.4079 93.8643 96.1067C90.6873 96.8056 88.6783 99.9476 89.3772 103.125C90.0761 106.302 93.2181 108.311 96.3951 107.612Z" fill="#F90000"/>
<path d="M96.4207 107.729C93.188 108.44 89.971 106.383 89.2599 103.15C88.5488 99.9176 90.6057 96.7006 93.8384 95.9895C97.0711 95.2784 100.288 97.3353 100.999 100.568C101.71 103.801 99.6535 107.018 96.4207 107.729ZM93.8878 96.2141C90.7723 96.8995 88.7992 99.9854 89.4845 103.101C90.1699 106.216 93.2558 108.19 96.3713 107.504C99.4868 106.819 101.46 103.733 100.775 100.617C100.089 97.5019 97.0033 95.5288 93.8878 96.2141Z" fill="#640202"/>
<g style="mix-blend-mode:multiply" opacity="0.64">
<path d="M93.8621 96.097C90.6782 96.7973 88.6768 99.9407 89.375 103.115C90.0732 106.289 93.2187 108.3 96.3929 107.602C99.567 106.904 101.578 103.758 100.88 100.584C100.182 97.4099 97.0362 95.3987 93.8621 96.097ZM94.491 104.262C92.6452 104.669 90.8124 103.505 90.4042 101.649C89.996 99.7938 91.1616 97.9709 93.0173 97.5627C94.8729 97.1545 96.6959 98.3201 97.104 100.176C97.5122 102.031 96.3467 103.854 94.491 104.262Z" fill="#9A180D"/>
</g>
<g style="mix-blend-mode:screen">
<path d="M93.2335 100.362C93.8268 100.231 94.202 99.6442 94.0715 99.0509C93.941 98.4576 93.3542 98.0824 92.7608 98.2129C92.1675 98.3434 91.7923 98.9302 91.9228 99.5235C92.0534 100.117 92.6401 100.492 93.2335 100.362Z" fill="#A0DBE8"/>
</g>
<g style="mix-blend-mode:screen">
<path d="M92.2417 102.044C92.5654 101.973 92.77 101.653 92.6988 101.329C92.6276 101.005 92.3076 100.801 91.9839 100.872C91.6603 100.943 91.4557 101.263 91.5269 101.587C91.598 101.91 91.9181 102.115 92.2417 102.044Z" fill="#A0DBE8"/>
</g>
<path d="M113.774 97.758C114.474 100.942 112.461 104.078 109.287 104.776C106.113 105.474 102.967 103.463 102.269 100.289C101.571 97.1146 103.582 93.9691 106.756 93.2709C109.93 92.5727 113.076 94.5838 113.774 97.758Z" fill="#F90000"/>
<path d="M109.303 104.895C106.07 105.606 102.853 103.549 102.142 100.317C101.431 97.0839 103.478 93.8691 106.72 93.1558C109.963 92.4426 113.17 94.5016 113.881 97.7343C114.592 100.967 112.536 104.184 109.303 104.895ZM106.77 93.3805C103.654 94.0658 101.681 97.1517 102.367 100.267C103.052 103.383 106.138 105.356 109.253 104.671C112.369 103.985 114.342 100.899 113.657 97.7837C112.971 94.6682 109.885 92.6951 106.77 93.3805Z" fill="#640202"/>
<g style="mix-blend-mode:multiply" opacity="0.64">
<path d="M106.744 93.2633C103.56 93.9636 101.559 97.107 102.257 100.281C102.955 103.455 106.101 105.466 109.275 104.768C112.449 104.07 114.46 100.924 113.762 97.7504C113.064 94.5762 109.918 92.5651 106.744 93.2633ZM107.373 101.429C105.527 101.835 103.694 100.671 103.286 98.8158C102.878 96.9602 104.044 95.1372 105.899 94.729C107.755 94.3208 109.578 95.4864 109.986 97.342C110.394 99.1977 109.229 101.021 107.373 101.429Z" fill="#9A180D"/>
</g>
<g style="mix-blend-mode:screen">
<path d="M106.954 96.2172C107.085 96.813 106.711 97.3968 106.116 97.5278C105.52 97.6589 104.936 97.2856 104.805 96.6899C104.674 96.0941 105.047 95.5103 105.643 95.3792C106.239 95.2482 106.823 95.6215 106.954 96.2172Z" fill="#A0DBE8"/>
</g>
<g style="mix-blend-mode:screen">
<path d="M105.124 99.2102C105.447 99.139 105.652 98.8189 105.581 98.4953C105.51 98.1717 105.19 97.967 104.866 98.0382C104.542 98.1094 104.338 98.4295 104.409 98.7531C104.48 99.0767 104.8 99.2814 105.124 99.2102Z" fill="#A0DBE8"/>
</g>
<path d="M104.282 112.747C93.7541 115.063 83.3048 108.382 80.9889 97.8536C78.6729 87.3253 85.354 76.876 95.8823 74.56C106.411 72.2441 116.86 78.9252 119.176 89.4535C121.492 99.9818 114.811 110.431 104.282 112.747ZM96.1251 75.6636C86.2121 77.8442 79.9195 87.6859 82.1001 97.5989C84.2807 107.512 94.1223 113.804 104.035 111.624C113.948 109.443 120.241 99.6016 118.06 89.6886C115.88 79.7756 106.038 73.4831 96.1251 75.6636Z" fill="white"/>
<path d="M99.2918 90.0595C102.846 89.2776 105.094 85.7622 104.312 82.2076C103.53 78.653 100.015 76.4053 96.4603 77.1872C92.9057 77.9691 90.658 81.4845 91.4399 85.0391C92.2218 88.5937 95.7373 90.8414 99.2918 90.0595Z" fill="#114B9C"/>
<path d="M99.3175 90.1767C95.7039 90.9716 92.1175 88.6785 91.3227 85.0649C90.5278 81.4513 92.8208 77.8649 96.4344 77.07C100.048 76.2751 103.634 78.5682 104.429 82.1818C105.224 85.7954 102.931 89.3818 99.3175 90.1767ZM96.4838 77.2946C92.9972 78.0616 90.7803 81.5288 91.5473 85.0155C92.3142 88.5021 95.7815 90.719 99.2681 89.952C102.755 89.1851 104.972 85.7178 104.205 82.2312C103.438 78.7446 99.9705 76.5277 96.4838 77.2946Z" fill="#253272"/>
<g style="mix-blend-mode:multiply" opacity="0.62">
<path d="M96.4581 77.1775C92.9031 77.9595 90.6557 81.4743 91.4377 85.0294C92.2197 88.5844 95.7346 90.8317 99.2896 90.0497C102.845 89.2677 105.092 85.7528 104.31 82.1978C103.528 78.6428 100.013 76.3955 96.4581 77.1775ZM97.1565 86.3107C95.086 86.7661 93.0465 85.4537 92.5932 83.3929C92.1399 81.3322 93.4502 79.2828 95.5109 78.8295C97.5716 78.3762 99.621 79.6865 100.074 81.7473C100.528 83.808 99.2173 85.8574 97.1565 86.3107Z" fill="#114B9C"/>
</g>
<g style="mix-blend-mode:screen">
<path d="M96.6939 80.484C96.8399 81.1481 96.4231 81.8132 95.7492 81.9614C95.0753 82.1097 94.42 81.6907 94.2718 81.0168C94.1235 80.3429 94.5425 79.6876 95.2164 79.5393C95.8903 79.3911 96.5456 79.8101 96.6939 80.484Z" fill="#A0DBE8"/>
</g>
<g style="mix-blend-mode:screen">
<path d="M94.6477 83.842C95.0145 83.7614 95.2464 83.3986 95.1657 83.0318C95.0851 82.665 94.7223 82.4331 94.3555 82.5138C93.9887 82.5945 93.7568 82.9572 93.8375 83.324C93.9182 83.6908 94.2809 83.9227 94.6477 83.842Z" fill="#A0DBE8"/>
</g>
<path d="M108.723 102.258C109.505 105.813 107.257 109.328 103.702 110.11C100.147 110.892 96.6326 108.645 95.8506 105.09C95.0686 101.535 97.3159 98.0199 100.871 97.2379C104.426 96.4559 107.941 98.7032 108.723 102.258Z" fill="#114B9C"/>
<path d="M103.728 110.227C100.115 111.022 96.5282 108.729 95.7333 105.116C94.9384 101.502 97.2315 97.9155 100.845 97.1206C104.459 96.3258 108.045 98.6188 108.84 102.232C109.635 105.846 107.342 109.432 103.728 110.227ZM100.897 97.355C97.41 98.122 95.1931 101.589 95.9601 105.076C96.727 108.563 100.194 110.779 103.681 110.012C107.168 109.245 109.384 105.778 108.617 102.292C107.85 98.805 104.383 96.5881 100.897 97.355Z" fill="#253272"/>
<g style="mix-blend-mode:multiply" opacity="0.62">
<path d="M100.871 97.2379C97.3159 98.0199 95.0686 101.535 95.8506 105.09C96.6326 108.645 100.147 110.892 103.702 110.11C107.257 109.328 109.505 105.813 108.723 102.258C107.941 98.7032 104.426 96.4559 100.871 97.2379ZM101.569 106.371C99.4989 106.827 97.4593 105.514 97.006 103.453C96.5527 101.393 97.863 99.3432 99.9237 98.8899C101.984 98.4366 104.034 99.7469 104.487 101.808C104.94 103.868 103.63 105.918 101.569 106.371Z" fill="#114B9C"/>
</g>
<g style="mix-blend-mode:screen">
<path d="M100.162 102.022C100.831 101.875 101.254 101.213 101.107 100.544C100.96 99.8755 100.298 99.4526 99.6293 99.5997C98.9604 99.7469 98.5375 100.408 98.6846 101.077C98.8317 101.746 99.4932 102.169 100.162 102.022Z" fill="#A0DBE8"/>
</g>
<g style="mix-blend-mode:screen">
<path d="M99.5688 103.094C99.6483 103.456 99.4219 103.823 99.0508 103.905C98.6797 103.986 98.3222 103.758 98.2406 103.387C98.1589 103.015 98.3875 102.658 98.7586 102.576C99.1297 102.495 99.4872 102.723 99.5688 103.094Z" fill="#A0DBE8"/>
</g>
<path d="M112.524 97.6642C116.079 96.8823 118.327 93.3669 117.545 89.8123C116.763 86.2577 113.247 84.01 109.693 84.7919C106.138 85.5738 103.89 89.0893 104.672 92.6438C105.454 96.1984 108.97 98.4461 112.524 97.6642Z" fill="#114B9C"/>
<path d="M112.548 97.7716C108.934 98.5665 105.348 96.2734 104.553 92.6598C103.758 89.0462 106.051 85.4599 109.665 84.665C113.278 83.8701 116.865 86.1631 117.66 89.7767C118.455 93.3903 116.162 96.9767 112.548 97.7716ZM109.716 84.8994C106.23 85.6663 104.013 89.1335 104.78 92.6202C105.547 96.1068 109.014 98.3237 112.501 97.5567C115.987 96.7898 118.204 93.3226 117.437 89.8359C116.67 86.3493 113.203 84.1324 109.716 84.8994Z" fill="#253272"/>
<g style="mix-blend-mode:multiply" opacity="0.62">
<path d="M109.691 84.7822C106.136 85.5642 103.888 89.0791 104.67 92.6341C105.452 96.1891 108.967 98.4364 112.522 97.6544C116.077 96.8724 118.325 93.3575 117.543 89.8025C116.761 86.2475 113.246 84.0002 109.691 84.7822ZM110.389 93.9154C108.319 94.3708 106.279 93.0584 105.826 90.9976C105.373 88.9369 106.683 86.8875 108.744 86.4342C110.804 85.9809 112.854 87.2913 113.307 89.352C113.76 91.4127 112.45 93.4621 110.389 93.9154Z" fill="#114B9C"/>
</g>
<g style="mix-blend-mode:screen">
<path d="M109.927 88.0887C110.073 88.7528 109.656 89.4179 108.982 89.5661C108.308 89.7144 107.653 89.2954 107.504 88.6215C107.356 87.9476 107.775 87.2923 108.449 87.144C109.123 86.9958 109.778 87.4148 109.927 88.0887Z" fill="#A0DBE8"/>
</g>
<g style="mix-blend-mode:screen">
<path d="M108.389 90.6387C108.468 91 108.242 91.3672 107.871 91.4489C107.499 91.5305 107.142 91.302 107.06 90.9308C106.979 90.5597 107.207 90.2023 107.578 90.1206C107.95 90.039 108.307 90.2675 108.389 90.6387Z" fill="#A0DBE8"/>
</g>
<path d="M90.4715 102.515C94.0261 101.733 96.2738 98.2178 95.4919 94.6633C94.71 91.1087 91.1946 88.861 87.64 89.6429C84.0854 90.4248 81.8377 93.9402 82.6196 97.4948C83.4015 101.049 86.9169 103.297 90.4715 102.515Z" fill="#114B9C"/>
<path d="M90.4953 102.623C86.8817 103.417 83.2953 101.124 82.5004 97.5108C81.7055 93.8972 83.9986 90.3108 87.6122 89.5159C91.2258 88.721 94.8121 91.0141 95.607 94.6277C96.4019 98.2413 94.1089 101.828 90.4953 102.623ZM87.6637 89.7503C84.1771 90.5173 81.9602 93.9845 82.7272 97.4712C83.4941 100.958 86.9614 103.175 90.448 102.408C93.9346 101.641 96.1515 98.1735 95.3845 94.6869C94.6176 91.2003 91.1504 88.9834 87.6637 89.7503Z" fill="#253272"/>
<g style="mix-blend-mode:multiply" opacity="0.62">
<path d="M87.638 89.6332C84.083 90.4152 81.8357 93.93 82.6177 97.485C83.3997 101.04 86.9146 103.287 90.4696 102.505C94.0246 101.723 96.2719 98.2085 95.4899 94.6535C94.7079 91.0985 91.193 88.8511 87.638 89.6332ZM88.3365 98.7664C86.266 99.2218 84.2264 97.9093 83.7731 95.8486C83.3198 93.7879 84.6301 91.7385 86.6908 91.2852C88.7516 90.8319 90.8009 92.1422 91.2542 94.203C91.7075 96.2637 90.3972 98.3131 88.3365 98.7664Z" fill="#114B9C"/>
</g>
<g style="mix-blend-mode:screen">
<path d="M87.864 92.9418C88.0101 93.6059 87.5933 94.271 86.9194 94.4192C86.2455 94.5675 85.5902 94.1485 85.4419 93.4746C85.2937 92.8007 85.7127 92.1454 86.3866 91.9972C87.0605 91.8489 87.7158 92.2679 87.864 92.9418Z" fill="#A0DBE8"/>
</g>
<g style="mix-blend-mode:screen">
<path d="M86.3359 95.4897C86.4154 95.851 86.189 96.2182 85.8179 96.2999C85.4467 96.3815 85.0893 96.153 85.0077 95.7818C84.926 95.4107 85.1546 95.0533 85.5257 94.9716C85.8968 94.89 86.2543 95.1185 86.3359 95.4897Z" fill="#A0DBE8"/>
</g>
<path d="M101.498 100.09C105.678 99.1701 108.322 95.0359 107.402 90.8557C106.483 86.6754 102.348 84.0321 98.1682 84.9516C93.9879 85.8711 91.3446 90.0054 92.2641 94.1856C93.1836 98.3659 97.3179 101.009 101.498 100.09Z" fill="#F90000"/>
<path d="M101.522 100.197C97.2832 101.129 93.0772 98.4403 92.1449 94.2016C91.2125 89.963 93.9017 85.757 98.1403 84.8246C102.379 83.8922 106.585 86.5814 107.517 90.8201C108.45 95.0588 105.761 99.2647 101.522 100.197ZM98.1919 85.059C94.0802 85.9635 91.4672 90.0503 92.3716 94.162C93.2761 98.2737 97.3629 100.887 101.475 99.9822C105.586 99.0778 108.199 94.991 107.295 90.8793C106.39 86.7676 102.304 84.1546 98.1919 85.059Z" fill="#640202"/>
<g style="mix-blend-mode:multiply" opacity="0.64">
<path d="M98.1682 84.9516C93.9881 85.8711 91.3446 90.0056 92.2641 94.1856C93.1836 98.3657 97.3181 101.009 101.498 100.09C105.678 99.1702 108.322 95.0357 107.402 90.8557C106.483 86.6756 102.348 84.0321 98.1682 84.9516ZM98.9933 95.6849C96.5615 96.2199 94.1547 94.681 93.6197 92.2492C93.0848 89.8173 94.6237 87.4105 97.0555 86.8756C99.4874 86.3406 101.894 87.8795 102.429 90.3113C102.964 92.7432 101.425 95.15 98.9933 95.6849Z" fill="#9A180D"/>
</g>
<g style="mix-blend-mode:screen">
<path d="M98.4387 88.8341C98.6106 89.6155 98.1154 90.3899 97.3341 90.5618C96.5528 90.7337 95.7783 90.2385 95.6064 89.4572C95.4346 88.6758 95.9297 87.9014 96.7111 87.7295C97.4924 87.5576 98.2669 88.0528 98.4387 88.8341Z" fill="#A0DBE8"/>
</g>
<g style="mix-blend-mode:screen">
<path d="M96.6384 91.8207C96.7329 92.2504 96.4565 92.6696 96.0365 92.7619C95.6166 92.8543 95.1876 92.5801 95.0953 92.1601C95.0029 91.7401 95.2771 91.3112 95.6971 91.2188C96.1171 91.1264 96.546 91.4007 96.6384 91.8207Z" fill="#A0DBE8"/>
</g>
</svg>
